<svg xmlns="http://www.w3.org/2000/svg" width="179.853" height="179.854" viewBox="0 0 179.853 179.854">
  <g id="Group_13940" data-name="Group 13940" transform="translate(-98 -316.999)">
    <g id="logo" transform="translate(98 316.999)">
      <path id="Path_11700" data-name="Path 11700" d="M58.922,138.116A7.662,7.662,0,0,0,51.5,130.7a7.52,7.52,0,1,0,0,15.039,7.7,7.7,0,0,0,7.418-7.623" transform="translate(0 0.001)" fill="#2b76b7"/>
      <path id="Path_11701" data-name="Path 11701" d="M58.715,92.586V44.62c0-13.6,6.387-25.34,20.4-32.963-29.667,4.121-31.726,21.22-31.726,36.465V95.883c0,8.446-2.474,19.365-7.83,25.752-5.15-6.387-7.622-17.306-7.622-25.752v-5.05c0-15.451-2.061-32.551-31.933-36.465,14.009,7.623,20.4,19.366,20.4,33.169l.2,5.049c0,12.567,3.5,28.431,18.954,33.17,16.483-4.739,19.16-20.6,19.16-33.17" transform="translate(0 0.001)" fill="#2b76b7"/>
      <path id="Path_11702" data-name="Path 11702" d="M30.491,130.7a7.52,7.52,0,0,0,0,15.039,7.52,7.52,0,1,0,0-15.039" transform="translate(0 0.001)" fill="#2b76b7"/>
      <path id="Path_11703" data-name="Path 11703" d="M75.816,117.665c0,13.8-6.387,25.546-20.4,33.168,29.667-4.119,31.728-21.219,31.728-36.465V55.745L75.816,63.162Z" transform="translate(0 0.001)" fill="#2b76b7"/>
      <path id="Path_11704" data-name="Path 11704" d="M139.475,55.745l-11.332,7.417V99.385h-17.3V11.451L99.3,18.661V111.54h40.173Z" transform="translate(0 0.001)" fill="#2b76b7"/>
      <path id="Path_11705" data-name="Path 11705" d="M133.706,119.987a7.662,7.662,0,0,0-7.416,7.416,7.52,7.52,0,0,0,7.416,7.418,7.386,7.386,0,0,0,7.416-7.418,7.518,7.518,0,0,0-7.416-7.416" transform="translate(0 0.001)" fill="#2b76b7"/>
      <path id="Path_11706" data-name="Path 11706" d="M151.629,111.54h11.537V11.451l-11.537,7.21Z" transform="translate(0 0.001)" fill="#2b76b7"/>
      <path id="Path_11707" data-name="Path 11707" d="M172.488.876Q167.74-.72,160.54.589l-2.946.492-2.946.572q-2.62.411-5.074.614a44.593,44.593,0,0,1-4.583.164,25.693,25.693,0,0,1-3.806-.327,9.037,9.037,0,0,1-2.741-.86,13.282,13.282,0,0,0,7.324,5.565A24.005,24.005,0,0,0,157.43,7.3q1.637-.246,3.355-.655t3.356-.736a45.076,45.076,0,0,1,9.411-.737,14.532,14.532,0,0,1,6.3,1.31A13.749,13.749,0,0,0,172.488.876" transform="translate(0 0.001)" fill="#2b76b7"/>
      <path id="Path_11708" data-name="Path 11708" d="M11.3,5.618A5.61,5.61,0,0,1,5.635,11.3,5.576,5.576,0,0,1,0,5.65,5.584,5.584,0,0,1,5.667,0,5.51,5.51,0,0,1,11.3,5.618m-.928,0A4.6,4.6,0,0,0,5.667.88,4.669,4.669,0,0,0,.913,5.65a4.662,4.662,0,0,0,4.722,4.77,4.7,4.7,0,0,0,4.738-4.8M7.3,6.643,8.708,8.8H7.331L6.083,6.883H4.659V8.8H3.282V2.5H5.907c1.665,0,2.657.864,2.657,2.193A1.966,1.966,0,0,1,7.3,6.643M5.827,5.81c.9,0,1.409-.416,1.409-1.12S6.723,3.585,5.827,3.585H4.642V5.81Z" transform="translate(0 0.001)" fill="#2b76b7"/>
      <path id="Path_11709" data-name="Path 11709" d="M32.546,175.8H23.774L22.1,179.853H17.619l8.422-18.894H30.36l8.449,18.894H34.22Zm-1.376-3.32-3-7.233-3,7.233Z" transform="translate(0 0.001)" fill="#2b76b7"/>
      <path id="Path_11710" data-name="Path 11710" d="M69.454,174.7c0,3.266-2.591,5.155-7.558,5.155H52.125V160.959h9.232c4.723,0,7.152,1.97,7.152,4.912A4.544,4.544,0,0,1,66,170.028a4.666,4.666,0,0,1,3.455,4.67M56.471,164.252v4.454h4.346c2.132,0,3.293-.756,3.293-2.24s-1.161-2.214-3.293-2.214Zm8.583,9.987c0-1.593-1.215-2.349-3.481-2.349h-5.1v4.67h5.1c2.266,0,3.481-.7,3.481-2.321" transform="translate(0 0.001)" fill="#2b76b7"/>
      <path id="Path_11711" data-name="Path 11711" d="M96.563,175.8H87.79l-1.672,4.049H81.635l8.422-18.894h4.319l8.45,18.894h-4.59Zm-1.376-3.32-3-7.233-3,7.233Z" transform="translate(0 0.001)" fill="#2b76b7"/>
      <path id="Path_11712" data-name="Path 11712" d="M128.181,179.853l-3.645-5.264h-4.022v5.264h-4.373v-18.9h8.179c5.048,0,8.206,2.619,8.206,6.857a6.142,6.142,0,0,1-3.887,5.965l4.238,6.073Zm-4.1-15.332h-3.563v6.587h3.563c2.673,0,4.022-1.242,4.022-3.293,0-2.079-1.349-3.294-4.022-3.294" transform="translate(0 0.001)" fill="#2b76b7"/>
      <path id="Path_11713" data-name="Path 11713" d="M156.126,173.159v6.694h-4.373V173.1l-7.315-12.146h4.643l5.048,8.394,5.048-8.394h4.291Z" transform="translate(0 0.001)" fill="#2b76b7"/>
    </g>
  </g>
</svg>
